<svg xmlns="http://www.w3.org/2000/svg" width="15" height="13" viewBox="0 0 15 13"><defs><mask id="cotbb" width="2" height="2" x="-1" y="-1"><path fill="#fff" d="M0 0h15v13H0z"/><path d="M12.3 5.051V1.393h-2.1V2.84L7.5 0 0 7.893h1.8V13h4.65V8.82h2.1V13h4.65V7.893H15z"/></mask><filter id="cotba" width="35.5" height="33.9" x="-10" y="-10" filterUnits="userSpaceOnUse"><feOffset dx=".5" dy=".9" in="SourceGraphic" result="FeOffset1023Out"/><feGaussianBlur in="FeOffset1023Out" result="FeGaussianBlur1024Out" stdDeviation="0 0"/></filter><filter id="cotbc" width="200%" height="200%" x="-50%" y="-50%"><feGaussianBlur in="SourceGraphic" result="FeGaussianBlur1030Out" stdDeviation="0.5 0.5"/></filter><mask id="cotbd"><path fill="#fff" d="M12.3 5.051V1.393h-2.1V2.84L7.5 0 0 7.893h1.8V13h4.65V8.82h2.1V13h4.65V7.893H15z"/></mask></defs><g><g><g filter="url(#cotba)"><path fill="none" d="M12.3 5.051V1.393h-2.1V2.84L7.5 0 0 7.893h1.8V13h4.65V8.82h2.1V13h4.65V7.893H15z" mask="url(&quot;#cotbb&quot;)"/><path fill="#fff" d="M12.3 5.051V1.393h-2.1V2.84L7.5 0 0 7.893h1.8V13h4.65V8.82h2.1V13h4.65V7.893H15z"/></g><path d="M12.3 5.051V1.393h-2.1V2.84L7.5 0 0 7.893h1.8V13h4.65V8.82h2.1V13h4.65V7.893H15z"/><path fill="#505050" d="M12.3 5.051V1.393h-2.1V2.84L7.5 0 0 7.893h1.8V13h4.65V8.82h2.1V13h4.65V7.893H15z"/><path fill="#1a1a1a" fill-opacity=".7" d="M-1.5 14.9V-1.9h18v16.8zm14.3-8.949V2.293h-2.1V3.74L8 .9.5 8.793h1.8V13.9h4.65V9.72h2.1V13.9h4.65V8.793h1.8z" filter="url(#cotbc)" mask="url(&quot;#cotbd&quot;)"/></g></g></svg>