<svg xmlns="http://www.w3.org/2000/svg" width="20" height="13" viewBox="0 0 20 13"><defs><mask id="5vi3b" width="2" height="2" x="-1" y="-1"><path fill="#fff" d="M0 0h20v13H0z"/><path d="M19.5 10.095c0 1.6-1.234 2.902-2.751 2.902s-2.751-1.302-2.751-2.902c0-1.41.958-2.588 2.223-2.849V5.69c0-1.23-.948-2.23-2.114-2.23h-1.49c-.21 1.145-1.062 2.052-2.144 2.287v1.505c1.251.272 2.195 1.444 2.195 2.843 0 1.6-1.234 2.902-2.751 2.902s-2.751-1.302-2.751-2.902c0-1.4.943-2.57 2.194-2.843V5.747C8.28 5.512 7.427 4.605 7.216 3.46h-1.46c-1.166 0-2.115 1-2.115 2.23v1.563c1.251.272 2.195 1.444 2.195 2.843 0 1.6-1.235 2.902-2.752 2.902-1.516 0-2.75-1.302-2.75-2.902 0-1.4.943-2.57 2.194-2.843V5.69c0-1.876 1.448-3.404 3.227-3.404H7.23C7.499.982 8.6.003 9.917.003c1.315 0 2.418.979 2.688 2.283h1.502c1.78 0 3.227 1.527 3.227 3.404v1.569c1.237.283 2.166 1.447 2.166 2.836zm-2.751 1.728c.903 0 1.638-.775 1.638-1.728s-.735-1.728-1.638-1.728c-.904 0-1.639.775-1.639 1.728s.735 1.728 1.639 1.728zm-6.832 0c.903 0 1.638-.775 1.638-1.728s-.735-1.728-1.638-1.728c-.904 0-1.639.775-1.639 1.728s.735 1.728 1.639 1.728zm0-7.19c.903 0 1.638-.775 1.638-1.728s-.735-1.728-1.638-1.728c-.904 0-1.639.775-1.639 1.728s.735 1.728 1.639 1.728zm-6.833 7.19c.904 0 1.639-.775 1.639-1.728s-.735-1.728-1.639-1.728c-.903 0-1.638.775-1.638 1.728s.735 1.728 1.638 1.728z"/></mask><filter id="5vi3a" width="40.5" height="33.9" x="-10" y="-10" filterUnits="userSpaceOnUse"><feOffset dx=".5" dy=".9" in="SourceGraphic" result="FeOffset1049Out"/><feGaussianBlur in="FeOffset1049Out" result="FeGaussianBlur1050Out" stdDeviation="0 0"/></filter><filter id="5vi3c" width="200%" height="200%" x="-50%" y="-50%"><feGaussianBlur in="SourceGraphic" result="FeGaussianBlur1056Out" stdDeviation="0.5 0.5"/></filter><mask id="5vi3d"><path fill="#fff" d="M19.5 10.095c0 1.6-1.234 2.902-2.751 2.902s-2.751-1.302-2.751-2.902c0-1.41.958-2.588 2.223-2.849V5.69c0-1.23-.948-2.23-2.114-2.23h-1.49c-.21 1.145-1.062 2.052-2.144 2.287v1.505c1.251.272 2.195 1.444 2.195 2.843 0 1.6-1.234 2.902-2.751 2.902s-2.751-1.302-2.751-2.902c0-1.4.943-2.57 2.194-2.843V5.747C8.28 5.512 7.427 4.605 7.216 3.46h-1.46c-1.166 0-2.115 1-2.115 2.23v1.563c1.251.272 2.195 1.444 2.195 2.843 0 1.6-1.235 2.902-2.752 2.902-1.516 0-2.75-1.302-2.75-2.902 0-1.4.943-2.57 2.194-2.843V5.69c0-1.876 1.448-3.404 3.227-3.404H7.23C7.499.982 8.6.003 9.917.003c1.315 0 2.418.979 2.688 2.283h1.502c1.78 0 3.227 1.527 3.227 3.404v1.569c1.237.283 2.166 1.447 2.166 2.836zm-2.751 1.728c.903 0 1.638-.775 1.638-1.728s-.735-1.728-1.638-1.728c-.904 0-1.639.775-1.639 1.728s.735 1.728 1.639 1.728zm-6.832 0c.903 0 1.638-.775 1.638-1.728s-.735-1.728-1.638-1.728c-.904 0-1.639.775-1.639 1.728s.735 1.728 1.639 1.728zm0-7.19c.903 0 1.638-.775 1.638-1.728s-.735-1.728-1.638-1.728c-.904 0-1.639.775-1.639 1.728s.735 1.728 1.639 1.728zm-6.833 7.19c.904 0 1.639-.775 1.639-1.728s-.735-1.728-1.639-1.728c-.903 0-1.638.775-1.638 1.728s.735 1.728 1.638 1.728z"/></mask></defs><g><g><g filter="url(#5vi3a)"><path fill="none" d="M19.5 10.095c0 1.6-1.234 2.902-2.751 2.902s-2.751-1.302-2.751-2.902c0-1.41.958-2.588 2.223-2.849V5.69c0-1.23-.948-2.23-2.114-2.23h-1.49c-.21 1.145-1.062 2.052-2.144 2.287v1.505c1.251.272 2.195 1.444 2.195 2.843 0 1.6-1.234 2.902-2.751 2.902s-2.751-1.302-2.751-2.902c0-1.4.943-2.57 2.194-2.843V5.747C8.28 5.512 7.427 4.605 7.216 3.46h-1.46c-1.166 0-2.115 1-2.115 2.23v1.563c1.251.272 2.195 1.444 2.195 2.843 0 1.6-1.235 2.902-2.752 2.902-1.516 0-2.75-1.302-2.75-2.902 0-1.4.943-2.57 2.194-2.843V5.69c0-1.876 1.448-3.404 3.227-3.404H7.23C7.499.982 8.6.003 9.917.003c1.315 0 2.418.979 2.688 2.283h1.502c1.78 0 3.227 1.527 3.227 3.404v1.569c1.237.283 2.166 1.447 2.166 2.836zm-2.751 1.728c.903 0 1.638-.775 1.638-1.728s-.735-1.728-1.638-1.728c-.904 0-1.639.775-1.639 1.728s.735 1.728 1.639 1.728zm-6.832 0c.903 0 1.638-.775 1.638-1.728s-.735-1.728-1.638-1.728c-.904 0-1.639.775-1.639 1.728s.735 1.728 1.639 1.728zm0-7.19c.903 0 1.638-.775 1.638-1.728s-.735-1.728-1.638-1.728c-.904 0-1.639.775-1.639 1.728s.735 1.728 1.639 1.728zm-6.833 7.19c.904 0 1.639-.775 1.639-1.728s-.735-1.728-1.639-1.728c-.903 0-1.638.775-1.638 1.728s.735 1.728 1.638 1.728z" mask="url(&quot;#5vi3b&quot;)"/><path fill="#fff" d="M19.5 10.095c0 1.6-1.234 2.902-2.751 2.902s-2.751-1.302-2.751-2.902c0-1.41.958-2.588 2.223-2.849V5.69c0-1.23-.948-2.23-2.114-2.23h-1.49c-.21 1.145-1.062 2.052-2.144 2.287v1.505c1.251.272 2.195 1.444 2.195 2.843 0 1.6-1.234 2.902-2.751 2.902s-2.751-1.302-2.751-2.902c0-1.4.943-2.57 2.194-2.843V5.747C8.28 5.512 7.427 4.605 7.216 3.46h-1.46c-1.166 0-2.115 1-2.115 2.23v1.563c1.251.272 2.195 1.444 2.195 2.843 0 1.6-1.235 2.902-2.752 2.902-1.516 0-2.75-1.302-2.75-2.902 0-1.4.943-2.57 2.194-2.843V5.69c0-1.876 1.448-3.404 3.227-3.404H7.23C7.499.982 8.6.003 9.917.003c1.315 0 2.418.979 2.688 2.283h1.502c1.78 0 3.227 1.527 3.227 3.404v1.569c1.237.283 2.166 1.447 2.166 2.836zm-2.751 1.728c.903 0 1.638-.775 1.638-1.728s-.735-1.728-1.638-1.728c-.904 0-1.639.775-1.639 1.728s.735 1.728 1.639 1.728zm-6.832 0c.903 0 1.638-.775 1.638-1.728s-.735-1.728-1.638-1.728c-.904 0-1.639.775-1.639 1.728s.735 1.728 1.639 1.728zm0-7.19c.903 0 1.638-.775 1.638-1.728s-.735-1.728-1.638-1.728c-.904 0-1.639.775-1.639 1.728s.735 1.728 1.639 1.728zm-6.833 7.19c.904 0 1.639-.775 1.639-1.728s-.735-1.728-1.639-1.728c-.903 0-1.638.775-1.638 1.728s.735 1.728 1.638 1.728z"/></g><path d="M19.5 10.095c0 1.6-1.234 2.902-2.751 2.902s-2.751-1.302-2.751-2.902c0-1.41.958-2.588 2.223-2.849V5.69c0-1.23-.948-2.23-2.114-2.23h-1.49c-.21 1.145-1.062 2.052-2.144 2.287v1.505c1.251.272 2.195 1.444 2.195 2.843 0 1.6-1.234 2.902-2.751 2.902s-2.751-1.302-2.751-2.902c0-1.4.943-2.57 2.194-2.843V5.747C8.28 5.512 7.427 4.605 7.216 3.46h-1.46c-1.166 0-2.115 1-2.115 2.23v1.563c1.251.272 2.195 1.444 2.195 2.843 0 1.6-1.235 2.902-2.752 2.902-1.516 0-2.75-1.302-2.75-2.902 0-1.4.943-2.57 2.194-2.843V5.69c0-1.876 1.448-3.404 3.227-3.404H7.23C7.499.982 8.6.003 9.917.003c1.315 0 2.418.979 2.688 2.283h1.502c1.78 0 3.227 1.527 3.227 3.404v1.569c1.237.283 2.166 1.447 2.166 2.836zm-2.751 1.728c.903 0 1.638-.775 1.638-1.728s-.735-1.728-1.638-1.728c-.904 0-1.639.775-1.639 1.728s.735 1.728 1.639 1.728zm-6.832 0c.903 0 1.638-.775 1.638-1.728s-.735-1.728-1.638-1.728c-.904 0-1.639.775-1.639 1.728s.735 1.728 1.639 1.728zm0-7.19c.903 0 1.638-.775 1.638-1.728s-.735-1.728-1.638-1.728c-.904 0-1.639.775-1.639 1.728s.735 1.728 1.639 1.728zm-6.833 7.19c.904 0 1.639-.775 1.639-1.728s-.735-1.728-1.639-1.728c-.903 0-1.638.775-1.638 1.728s.735 1.728 1.638 1.728z"/><path fill="#505050" d="M19.5 10.095c0 1.6-1.234 2.902-2.751 2.902s-2.751-1.302-2.751-2.902c0-1.41.958-2.588 2.223-2.849V5.69c0-1.23-.948-2.23-2.114-2.23h-1.49c-.21 1.145-1.062 2.052-2.144 2.287v1.505c1.251.272 2.195 1.444 2.195 2.843 0 1.6-1.234 2.902-2.751 2.902s-2.751-1.302-2.751-2.902c0-1.4.943-2.57 2.194-2.843V5.747C8.28 5.512 7.427 4.605 7.216 3.46h-1.46c-1.166 0-2.115 1-2.115 2.23v1.563c1.251.272 2.195 1.444 2.195 2.843 0 1.6-1.235 2.902-2.752 2.902-1.516 0-2.75-1.302-2.75-2.902 0-1.4.943-2.57 2.194-2.843V5.69c0-1.876 1.448-3.404 3.227-3.404H7.23C7.499.982 8.6.003 9.917.003c1.315 0 2.418.979 2.688 2.283h1.502c1.78 0 3.227 1.527 3.227 3.404v1.569c1.237.283 2.166 1.447 2.166 2.836zm-2.751 1.728c.903 0 1.638-.775 1.638-1.728s-.735-1.728-1.638-1.728c-.904 0-1.639.775-1.639 1.728s.735 1.728 1.639 1.728zm-6.832 0c.903 0 1.638-.775 1.638-1.728s-.735-1.728-1.638-1.728c-.904 0-1.639.775-1.639 1.728s.735 1.728 1.639 1.728zm0-7.19c.903 0 1.638-.775 1.638-1.728s-.735-1.728-1.638-1.728c-.904 0-1.639.775-1.639 1.728s.735 1.728 1.639 1.728zm-6.833 7.19c.904 0 1.639-.775 1.639-1.728s-.735-1.728-1.639-1.728c-.903 0-1.638.775-1.638 1.728s.735 1.728 1.638 1.728z"/><path fill="#1a1a1a" fill-opacity=".7" d="M-1.5 14.9V-1.9h23v16.8zM20 10.995c0-1.389-.93-2.553-2.166-2.836v-1.57c0-1.876-1.448-3.403-3.227-3.403h-1.502c-.27-1.304-1.373-2.283-2.688-2.283-1.316 0-2.418.979-2.688 2.282H6.255c-1.78 0-3.227 1.528-3.227 3.404v1.563C1.777 8.424.833 9.596.833 10.995c0 1.6 1.235 2.902 2.751 2.902 1.517 0 2.752-1.302 2.752-2.902 0-1.4-.944-2.57-2.195-2.843V6.59c0-1.23.949-2.23 2.114-2.23h1.461c.21 1.146 1.063 2.053 2.144 2.288v1.505c-1.25.272-2.194 1.444-2.194 2.843 0 1.6 1.234 2.902 2.75 2.902 1.518 0 2.752-1.302 2.752-2.902 0-1.4-.944-2.57-2.195-2.843V6.647c1.082-.235 1.933-1.142 2.144-2.288h1.49c1.166 0 2.114 1 2.114 2.23v1.557c-1.265.26-2.223 1.439-2.223 2.849 0 1.6 1.234 2.902 2.75 2.902 1.518 0 2.752-1.302 2.752-2.902zm-4.39 0c0-.953.735-1.728 1.639-1.728.903 0 1.638.775 1.638 1.728s-.735 1.728-1.638 1.728c-.904 0-1.639-.775-1.639-1.728zm-6.832 0c0-.953.735-1.728 1.639-1.728.903 0 1.638.775 1.638 1.728s-.735 1.728-1.638 1.728c-.904 0-1.639-.775-1.639-1.728zm0-7.19c0-.953.735-1.728 1.639-1.728.903 0 1.638.775 1.638 1.728s-.735 1.728-1.638 1.728c-.904 0-1.639-.775-1.639-1.728zm-6.832 7.19c0-.953.735-1.728 1.638-1.728.904 0 1.639.775 1.639 1.728s-.735 1.728-1.639 1.728c-.903 0-1.638-.775-1.638-1.728z" filter="url(#5vi3c)" mask="url(&quot;#5vi3d&quot;)"/></g></g></svg>