<svg xmlns="http://www.w3.org/2000/svg" width="20" height="13" viewBox="0 0 20 13"><defs><mask id="t5e0b" width="2" height="2" x="-1" y="-1"><path fill="#fff" d="M0 0h20v13H0z"/><path d="M20 0v13H.833V0zM2.229.788l8.188 7.164L18.605.788zm-.63 11.092l5.76-5.57-5.76-5.038zm16.86.332l-5.572-5.388-2.47 2.161-2.471-2.161-5.571 5.388zm.774-10.94L13.475 6.31l5.758 5.57z"/></mask><filter id="t5e0a" width="40.5" height="33.9" x="-10" y="-10" filterUnits="userSpaceOnUse"><feOffset dx=".5" dy=".9" in="SourceGraphic" result="FeOffset1075Out"/><feGaussianBlur in="FeOffset1075Out" result="FeGaussianBlur1076Out" stdDeviation="0 0"/></filter><filter id="t5e0c" width="200%" height="200%" x="-50%" y="-50%"><feGaussianBlur in="SourceGraphic" result="FeGaussianBlur1082Out" stdDeviation="0.5 0.5"/></filter><mask id="t5e0d"><path fill="#fff" d="M20 0v13H.833V0zM2.229.788l8.188 7.164L18.605.788zm-.63 11.092l5.76-5.57-5.76-5.038zm16.86.332l-5.572-5.388-2.47 2.161-2.471-2.161-5.571 5.388zm.774-10.94L13.475 6.31l5.758 5.57z"/></mask></defs><g><g><g filter="url(#t5e0a)"><path fill="none" d="M20 0v13H.833V0zM2.229.788l8.188 7.164L18.605.788zm-.63 11.092l5.76-5.57-5.76-5.038zm16.86.332l-5.572-5.388-2.47 2.161-2.471-2.161-5.571 5.388zm.774-10.94L13.475 6.31l5.758 5.57z" mask="url(&quot;#t5e0b&quot;)"/><path fill="#fff" d="M20 0v13H.833V0zM2.229.788l8.188 7.164L18.605.788zm-.63 11.092l5.76-5.57-5.76-5.038zm16.86.332l-5.572-5.388-2.47 2.161-2.471-2.161-5.571 5.388zm.774-10.94L13.475 6.31l5.758 5.57z"/></g><path d="M20 0v13H.833V0zM2.229.788l8.188 7.164L18.605.788zm-.63 11.092l5.76-5.57-5.76-5.038zm16.86.332l-5.572-5.388-2.47 2.161-2.471-2.161-5.571 5.388zm.774-10.94L13.475 6.31l5.758 5.57z"/><path fill="#505050" d="M20 0v13H.833V0zM2.229.788l8.188 7.164L18.605.788zm-.63 11.092l5.76-5.57-5.76-5.038zm16.86.332l-5.572-5.388-2.47 2.161-2.471-2.161-5.571 5.388zm.774-10.94L13.475 6.31l5.758 5.57z"/><path fill="#1a1a1a" fill-opacity=".7" d="M-1.5 14.9V-1.9h23v16.8zM1.333.9v13H20.5V.9zm17.772.788l-8.188 7.164-8.188-7.164zM2.1 2.172L7.858 7.21 2.1 12.78zm.775 10.94l5.57-5.388 2.472 2.161 2.47-2.161 5.571 5.388zm16.858-.332l-5.758-5.57 5.758-5.038z" filter="url(#t5e0c)" mask="url(&quot;#t5e0d&quot;)"/></g></g></svg>